<svg width="current" height="current" viewBox="0 0 24 24" fill="current" xmlns="http://www.w3.org/2000/svg">
<path d="M21.5012 10.65C21.8912 10.27 22.0312 9.71 21.8612 9.19C21.6912 8.67 21.2512 8.3 20.7112 8.22L15.7612 7.5C15.6212 7.48 15.5012 7.39 15.4412 7.27L13.2412 2.79C13.0012 2.3 12.5112 2 11.9712 2C11.4312 2 10.9412 2.3 10.7012 2.79L8.49121 7.27C8.43121 7.39 8.31121 7.48 8.17121 7.5L3.22121 8.22C2.68121 8.3 2.24121 8.67 2.07121 9.19C1.90121 9.71 2.04121 10.27 2.43121 10.65L6.01121 14.14C6.11121 14.24 6.15121 14.38 6.13121 14.51L5.29121 19.44C5.20121 19.98 5.41121 20.51 5.86121 20.83C6.30121 21.15 6.88121 21.19 7.36121 20.94L11.7812 18.61C11.9012 18.55 12.0512 18.55 12.1712 18.61L16.5912 20.94C16.8012 21.05 17.0312 21.11 17.2512 21.11C17.5412 21.11 17.8312 21.02 18.0812 20.84C18.5212 20.52 18.7412 19.99 18.6512 19.45L17.8112 14.52C17.7912 14.38 17.8312 14.24 17.9312 14.15L21.5112 10.66L21.5012 10.65Z" fill="current"/>
</svg>
